<?xml version="1.0" standalone="no"?>
<!DOCTYPE svg PUBLIC "-//W3C//DTD SVG 20010904//EN"
 "http://www.w3.org/TR/2001/REC-SVG-20010904/DTD/svg10.dtd">
<svg version="1.0" xmlns="http://www.w3.org/2000/svg"
 width="1920.000000pt" height="1920.000000pt" viewBox="0 0 1920.000000 1920.000000"
 preserveAspectRatio="xMidYMid meet">
<metadata>
Created by potrace 1.14, written by Peter Selinger 2001-2017
</metadata>
<g transform="translate(0.000000,1920.000000) scale(0.100000,-0.100000)"
fill="#000000" stroke="none">
<path d="M0 9600 l0 -9600 9600 0 9600 0 0 9600 0 9600 -9600 0 -9600 0 0
-9600z m19190 0 l0 -9590 -9590 0 -9590 0 0 9590 0 9590 9590 0 9590 0 0
-9590z"/>
<path d="M9145 14584 c-33 -2 -132 -8 -220 -14 -1101 -74 -1956 -329 -2625
-781 -346 -234 -666 -555 -903 -906 -410 -610 -661 -1410 -751 -2403 -30 -325
-39 -597 -33 -1030 7 -511 25 -774 83 -1170 188 -1295 696 -2232 1538 -2836
597 -427 1413 -701 2381 -799 305 -30 429 -36 845 -42 433 -6 704 3 1030 33
989 89 1794 341 2403 751 260 176 560 450 741 678 497 625 791 1418 911 2455
34 298 47 519 52 925 7 557 -13 937 -72 1380 l-24 179 -1742 1742 c-1208 1208
-1750 1744 -1768 1747 -64 13 -453 58 -626 73 -178 15 -1052 28 -1220 18z"/>
</g>
</svg>
